<svg id="Layer_2" data-name="Layer 2" xmlns="http://www.w3.org/2000/svg" viewBox="0 0 515.9 728.5"><title>Artboard 1</title><g id="Layer_2-2" data-name="Layer 2"><path d="M440.63,313.73c-11.15,20.12-30.73,42.54-52.49,55.89-16,9.84-47.58,17.82-64.54,17.82l-46-27.45,26.9-49.11,82.69-11.59,50.31,2.19Z" style="fill:#ee365e"/><path d="M195.75,395.1c-8.32,0-45.06,2.62-80.06-19.58-38.61-24.5-44-43.09-55.13-57.75L62,294.7l97.89,28,49.88,2.08v53.71Z" style="fill:#ee365e"/><path d="M273.29,580.27a36.64,36.64,0,0,0,11.6-6.89,52.64,52.64,0,0,0,9-10.06,60.12,60.12,0,0,0,6.23-12,45.44,45.44,0,0,0,2.08-6.46,36,36,0,0,0,1.09-6.67,40.57,40.57,0,0,1-2.4,13.45A59.07,59.07,0,0,1,294.73,564a39.87,39.87,0,0,1-4.27,5.47,41,41,0,0,1-5,4.7,35,35,0,0,1-5.79,3.83A31.21,31.21,0,0,1,273.29,580.27Z"/><path d="M322,387.77c17,0,48.57-7.87,64.53-17.83,21.77-13.34,41.35-35.87,52.5-55.89" style="fill:none;stroke:#000;stroke-miterlimit:10;stroke-width:2px"/><g id="Layer_3" data-name="Layer 3"><path d="M215.54,414.68A23,23,0,0,0,217,402.87c-.44-3.4-5.47-3.61-5.47,0,0,2.07,0,4.26-.11,6.34,1.53-.66,3.06-1.31,4.7-2-.55-1.42-1.09-2.95-1.64-4.37-1.31.54-2.62,1.09-4,1.64a81.59,81.59,0,0,0,37.41,10.17v-5.47a67.22,67.22,0,0,1-19.36-1c-5.14-1.09-9.73-3.5-15.09-2.51-2.19.44-2.74,4.05-.66,5a117.51,117.51,0,0,0,51.19,9.95c3.28-.11,3.5-4.26.76-5.36A188.13,188.13,0,0,0,234,405.82c-3.39-.77-4.81,4.26-1.42,5.25a167.47,167.47,0,0,0,40.79,6.78v-5.47a65.1,65.1,0,0,1-21.54-2.3c-.22,1.75-.44,3.61-.77,5.36a183.59,183.59,0,0,1,26.69,4.27c.22-1.75.43-3.61.76-5.36a34.2,34.2,0,0,1-19.68-4.48c-.44,1.75-.88,3.39-1.43,5.14,9.85-.44,19.58-.55,29.43-.33-.22-1.75-.44-3.61-.77-5.36a74.29,74.29,0,0,1-27.23,3.83c-3.07-.11-3.83,4.92-.77,5.36a102.87,102.87,0,0,0,35.22-.77c2.73-.55,2.51-4.59,0-5.25-4.16-1.2-8.42-2.41-12.47-3.72-.22,1.75-.44,3.61-.77,5.36,7.11.33,14.22.55,21.33.88,3.06.11,3.72-4.71.77-5.36a9.37,9.37,0,0,0-8.86,2.29c1.09-.11,2.19-.32,3.28-.43-.22-.22-.44-.55-.66-.77l-4.59,2.63c1.2,1.09,2.3,2.29,3.5,3.39,1.53,1.53,4.92.54,4.7-2-.11-1-.22-2.08-.33-3.07-1.42.77-2.73,1.54-4.15,2.41a13.25,13.25,0,0,1,4.05,3.28c1.42,1.75,3.93.55,4.59-1.2.44-1.42,1-2.84,1.42-4.38-1.31.55-2.62,1.1-4.05,1.64a4,4,0,0,1,2.74,2.85c1,2.19,4.48,1.53,5-.66a57.63,57.63,0,0,1,2.41-7.33h-4.71a4.42,4.42,0,0,1,1,4.82c-.88,3.5,4,4.7,5.25,1.42a6.65,6.65,0,0,0-3.18-8.2c-5.46-3.07-10.82,2.62-16.4.87-3.39-1.09-4.81,4.27-1.42,5.25a12.36,12.36,0,0,0,6,.44c.66-.11,11.16-3.72,9.85.22,1.75.43,3.5,1,5.25,1.42a10.68,10.68,0,0,0-1.54-9.08c-1-1.53-3.82-2.08-4.7,0a57.08,57.08,0,0,0-2.95,8.64l5-.66a10.11,10.11,0,0,0-4.7-4.81,2.87,2.87,0,0,0-4,1.64c-.44,1.42-1,2.85-1.42,4.38,1.53-.44,3.06-.77,4.59-1.21a15.7,15.7,0,0,0-5.14-4.15c-1.64-.88-4.37.11-4.15,2.4.1,1,.21,2.08.32,3.07,1.53-.66,3.07-1.32,4.71-2-1.21-1.1-2.3-2.3-3.5-3.39-2-1.86-5.36,0-4.6,2.62A6.21,6.21,0,0,0,294,416.1a2.65,2.65,0,0,0,3.29-.44c1.2-.33,2.29-.65,3.5-.87.21-1.75.43-3.61.76-5.36-7.11-.33-14.22-.55-21.33-.88-3.17-.11-3.61,4.49-.76,5.36,4.15,1.31,8.31,2.52,12.47,3.72v-5.25a94.09,94.09,0,0,1-32.27.77c-.22,1.75-.44,3.61-.76,5.36a79.69,79.69,0,0,0,28.65-4.05,2.75,2.75,0,0,0-.76-5.36c-9.85-.22-19.58-.11-29.43.33-2.62.11-3.82,3.72-1.42,5.14a40.59,40.59,0,0,0,22.53,5.25c3-.22,3.83-4.6.77-5.36A189.68,189.68,0,0,0,251,410c-3.17-.21-3.61,4.6-.76,5.36a70.79,70.79,0,0,0,23,2.52c3.5-.22,3.5-5.36,0-5.47a164.82,164.82,0,0,1-39.37-6.56c-.44,1.75-1,3.5-1.42,5.25A177.92,177.92,0,0,1,263,420.58c.22-1.75.44-3.61.77-5.36A107.72,107.72,0,0,1,215.43,406c-.21,1.64-.43,3.28-.65,5,3.39-.66,7,1.2,10.28,2.08a65.56,65.56,0,0,0,8,1.42,68.47,68.47,0,0,0,14.88.22c3.5-.33,3.61-5.36,0-5.47a75.55,75.55,0,0,1-34.67-9.52c-1.42-.76-3.72-.22-4.05,1.64-.55,3.83.22,6.89,3,9.63,1.64,1.75,4.6.44,4.71-2,0-2.08,0-4.27.11-6.34H211.5a21,21,0,0,1-1.21,10.39c-1.31,3.39,3.94,4.81,5.25,1.53Z" style="fill:#dadfe5"/></g><path d="M447.74,299.18a8,8,0,0,0-1.75-7.44c-8.42-10.06-21.54-8.64-32.7-4.81-.66.22-1.2.33-1.86.55a125.22,125.22,0,0,1-38.5-5,7.75,7.75,0,0,0-4.48,0l-3.94-1c-7.11-2.51-14.33-5-21.44-7.66a8,8,0,0,0-3.5-.43,5,5,0,0,1-.76-.77,7.51,7.51,0,0,0-9.3-1.42l2-15.31-4.81-38.94H199.47S195.53,247,216.86,282l109.26,1.09a9.56,9.56,0,0,0,1,1.2c3.83,3.94,6.24,6.9,6.24,12.58,0,6.57-.33,13.13-.55,19.69-.11,5.69.22,11.48,5.69,14.77,4.81,2.84,11.7,3,17.06,3.17a6.39,6.39,0,0,0,3.83-.88,138.05,138.05,0,0,0,17.72-.54,29,29,0,0,0,8.53-1,8.26,8.26,0,0,0,3.5-1.86,25,25,0,0,0,4.59-1.53,93.24,93.24,0,0,0,11.16-3.28,24.83,24.83,0,0,0,6.12-1.86h1.21a24.26,24.26,0,0,0,10.61-3.06c4-2.3,7.54-4.71,11.26-6.67a98.37,98.37,0,0,0,10.61-4.16C449.38,307.6,449.71,302.9,447.74,299.18Z" style="fill:#a7a9ac"/><path d="M216,260.35c-9-4.92-19.69,3.61-29.2.55-4.6-1.53-8.53-3.83-13.45-4a16.63,16.63,0,0,0-13,5.36,8.17,8.17,0,0,0-1.86,3.39,18.59,18.59,0,0,1-3.5,0,7.59,7.59,0,0,0-6.89,3.94c-.22.11-.55.22-.77.33a9.88,9.88,0,0,0-3.6,0c-10.72,2.29-21.44,4.59-32.27,6.67-9.52,1.86-19,3.28-28.44,0-8.2-2.84-13.34,8.42-7.87,13.78a12.89,12.89,0,0,0,.55,4.05,15.65,15.65,0,0,0,.76,2.51c-8-.43-13.56,11.05-5,15a259.93,259.93,0,0,0,85.31,23.07c12.69,1.21,29.31,3.83,38-8a24.69,24.69,0,0,0,3.28-6.34c.55-.55,1.1-1,1.65-1.64a8.17,8.17,0,0,0,.76-10.39c.22-1.64.33-3.29.55-4.93a7,7,0,0,0,.76-8.09c.11-.66.11-1.42.22-2.08,7.55-.44,15.42-1.64,19.25-8.75C224.62,277.74,223.64,264.62,216,260.35Z" style="fill:#a7a9ac"/><path d="M243.11,442.35c-.66-4.05-1.32-8.2-1.86-12.25-.55-3.17-5.25-2.19-5.36.77s-.33,5.79-.44,8.74c1.2-.87,2.3-1.75,3.5-2.62-1.86-.55-1.2-3.39-1.09-4.59-1.75-.22-3.61-.44-5.36-.77-.11,2.41-.11,4.7-.22,7.11,1.75-.44,3.39-.88,5.14-1.42a6.47,6.47,0,0,1-.77-6.13l-5,.66a36.92,36.92,0,0,1,3.17,7.44,2.8,2.8,0,0,0,5,.65,14.58,14.58,0,0,0,2.41-8.2c-1.75.44-3.39.88-5.14,1.42a25.64,25.64,0,0,1,3.17,6.24c1,3.06,5,2.29,5.36-.77.22-2.19.44-4.37.55-6.56-1.75.44-3.39.87-5.14,1.42a10.63,10.63,0,0,1,2.08,5.69h5.46a16.79,16.79,0,0,1,.88-7.33l-5,.66a9.53,9.53,0,0,1,1.31,6.23h5.47c0-.88-.33-3.06,0-3.72a14.22,14.22,0,0,1-1.64,1.2c.22-.1.33-.1.55-.21l-2.08-.33a.83.83,0,0,0,.44.22,16.77,16.77,0,0,1-1.21-1.64c.55,1.42.11,3.93.11,5.46,0,3.5,5.36,3.5,5.47,0,.11-2.4.11-4.81.22-7.1-1.75.21-3.61.43-5.36.76.22,1.2,1.09,4.92.33,6.24a14.67,14.67,0,0,1,1.64-1.21c-2.3.66-5.14-.87-7.11-2.08-2.95-2-5.69,2.85-2.74,4.71s8.65,4.48,11.93,2.29c3.17-2,1.64-8.42,1.2-11.37-.55-3.17-5.25-2.3-5.36.76-.11,2.41-.11,4.82-.22,7.11h5.47c0-2.73,1.09-8.64-3.06-9.07-4.49-.55-4.05,5.25-4.05,8,0,3.61,5.14,3.5,5.47,0a14.4,14.4,0,0,0-2.08-9,2.8,2.8,0,0,0-5,.66,20,20,0,0,0-1.09,8.75c.32,3.5,5.68,3.5,5.47,0a16.51,16.51,0,0,0-2.85-8.42,2.8,2.8,0,0,0-5.14,1.42c-.11,2.19-.33,4.37-.55,6.56,1.75-.22,3.61-.44,5.36-.77a28,28,0,0,0-3.72-7.54,2.79,2.79,0,0,0-5.14,1.42,10.73,10.73,0,0,1-1.75,5.47c1.64.22,3.29.44,5,.65a48.55,48.55,0,0,0-3.72-8.75c-1.21-2.18-4.27-1.42-5,.66a11.35,11.35,0,0,0,1.31,10.39,2.79,2.79,0,0,0,5.14-1.42c.11-2.41.11-4.7.22-7.11.11-2.95-4.92-3.83-5.36-.77-.77,4.71-.44,9.74,4.92,11.38a2.79,2.79,0,0,0,3.5-2.63c.11-3,.33-5.79.44-8.75-1.75.22-3.61.44-5.36.77.65,4.05,1.31,8.2,1.86,12.25.65,3.28,6,1.75,5.47-1.64Z" style="fill:#a7a9ac"/><path d="M277.89,172.74s-6.57-6.67-8.75-12.46-3.5-18.71.43-19.8,14.33,10.39,17.07,16.4,5.25,15.86,5.25,15.86Z" style="fill:#fff200;stroke:#f7941d;stroke-linecap:round;stroke-miterlimit:10;stroke-width:2px"/><polyline points="280.51 171.98 277.89 166.4 280.4 167.06 280.29 163.45 282.81 166.62 284.34 162.9 285.87 168.48 286.64 171.98" style="fill:none;stroke:#f7941d;stroke-linecap:round;stroke-miterlimit:10;stroke-width:2px"/><path d="M331,247s6.67-2.74,20.67-4.49c30.41-3.71,52.94,3.39,57.64,3.61,8.21.44,9.19-9.84,2.19-21.21-5.36-8.86-89-64.43-159-49.44-55.12,11.81-62,45.17-62,45.17" style="fill:#a7a9ac;stroke:#000;stroke-miterlimit:10;stroke-width:3px"/><path d="M197.06,397a.24.24,0,0,0,.22.22c3.17,3.06,45.72,13,69.12,13,23.74,0,46.49-2.62,51.74-6.56,4.7-3.5,4.7-20.78,7.32-29.2s16.41-38.28,14.55-57.64-9.51-40.8-10.17-46.7c-.55-4.71,4.05-16.85,6-21.66.33-.87-.1-1.64-1.09-1.53-3.5.11-4.59.11-5.58.66a16.58,16.58,0,0,0-2,2c-1.42,2.3-8,12.14-11.48,13.79-3.94,1.85-35.11,2.73-37.62.87s-4.6-24.06-9.41-24.83S192,224,190.61,220.43a6,6,0,0,1-.11-4.59,1.19,1.19,0,0,0-1-1.53c-2.18-.22-5.9-.33-8,1.2-3.06,2.3,2.51,22.86-4.16,30.19-2.84,3.06-11,6.45-15.09,9.18-1.2.77-3.17,5.91-1.86,6.46,8.75,3.39,33.47,13.56,31.72,40.79-2.19,33.14-18.92,34.78-25.7,34a1.19,1.19,0,0,0-1.1,1.86c4,5.47,13.78,18.92,17.06,27.67C187,377.93,196.08,395.21,197.06,397Z" style="fill:#5c98d1;stroke:#000;stroke-linecap:round;stroke-miterlimit:10;stroke-width:3px"/><path d="M428.93,282.77A79.1,79.1,0,0,1,434.18,271c2.95-5.47,9.84-11.15,13-12.9,2.51-1.43,4.26,4.26,2.29,8.64-1.75,4-5.47,7.54-1.09,10.17,2.84,1.75,9.73-4.49,15.31-7,8.86-4.05,18.38-2.41,20.78,0s-3.17,5.68-9.29,8.75c-5,2.51-10.18,2.84-8.21,6s7.66,0,11.82-.87,16.73-1.64,18.92,2.29-9.3,10.07-15.86,11.93c-3.39.87-10.39,1.42-10.39,3.61s5.14,2.07,10.28,3.28c4.92,1.09,11.05,2.73,8.86,5.14s-18.49,7.87-34.24,6.23c-5.79-.65-22-2.84-22-2.84" style="fill:#a7a9ac;stroke:#000;stroke-miterlimit:10;stroke-width:3px"/><path d="M169.06,343.26c17.06,0,24.06-10.83,29.09-27.67,8-26.58-8.64-55-35.11-60.71" style="fill:none;stroke:#000;stroke-miterlimit:10;stroke-width:3px"/><path d="M72.05,314.16c15.86,6.35,24.39,8.53,40.79,12.91,24.94,6.56,42.22,7.87,65.3,7.11" style="fill:none;stroke:#000;stroke-miterlimit:10;stroke-width:3px"/><path d="M79.37,276.76c14.55,1.53,25.38.44,51.41-4.92,11.92-2.52,25.16-5.91,30.62-9.3" style="fill:none;stroke:#000;stroke-miterlimit:10;stroke-width:3px"/><line x1="209.97" y1="411.83" x2="208.98" y2="401.33" style="fill:none;stroke:#000;stroke-miterlimit:10;stroke-width:3px"/><line x1="313.32" y1="415.66" x2="313.21" y2="405.82" style="fill:none;stroke:#000;stroke-miterlimit:10;stroke-width:3px"/><path d="M329.62,267.46c11.92,5.47,28.33,11.16,52.5,16.41,20.56,4.48,34.45,2.29,46.81-1.1" style="fill:none;stroke:#000;stroke-miterlimit:10;stroke-width:3px"/><path d="M338.92,332c10.06,3.06,29,5.58,52.5-1.09,21.87-6.24,34.12-11.27,42.65-17.5" style="fill:none;stroke:#000;stroke-miterlimit:10;stroke-width:3px"/><path d="M177.37,245.91C202,260.46,222.22,274,286,278.4c18.59,1.31,31.06-2.08,44.84-6" style="fill:none;stroke:#000;stroke-miterlimit:10;stroke-width:3px"/><path d="M428.93,282.77c3.72,1.32,6.45,3.61,7.44,13a34.47,34.47,0,0,1-2.3,17.61" style="fill:none;stroke:#000;stroke-linecap:round;stroke-miterlimit:10;stroke-width:3px"/><path d="M273.29,244.27c9.85-2.29,29.53-3.82,43.64-4.92,16.74-1.42,48.67.44,60.16,2.08" style="fill:none;stroke:#000;stroke-linecap:round;stroke-miterlimit:10;stroke-width:3px"/><path d="M316.82,438.52c7.88,5.36-17.5,73.72-26.57,82.69-6.13,6-19.25,3.06-20-3.94-.55-5.25,2.95-20.89,5.36-36.09,3.17-20.13.77-35.55,3.17-39.82S311.57,434.8,316.82,438.52Z" style="fill:#5c98d1;stroke:#000;stroke-linecap:round;stroke-miterlimit:10;stroke-width:3px"/><path d="M286.64,430.43v2.08a70,70,0,0,0,.32,7.43,1.92,1.92,0,0,0,1.21,1.53c2.29.77,7.11.77,9.62.77a30.19,30.19,0,0,0,6.13-.77c1.86-.76,2.95-1.53,2.95-3.17v-6.56a5,5,0,0,0-5-5h-12A3.59,3.59,0,0,0,286.64,430.43Z" style="fill:#a7a9ac;stroke:#000;stroke-miterlimit:10;stroke-width:3px"/><path d="M336,516c.33,42.43-19,70.32-61.25,70.32-49.65,0-64.85-41.89-63-77.76,2-37.62,15.42-62.89,63-62.89C327.1,445.63,335.75,486.86,336,516Z" style="fill:#443641;stroke:#000;stroke-linecap:round;stroke-miterlimit:10;stroke-width:3px"/><path d="M229.32,515.85c.33-26.91,10.94-43.31,27.46-43.31s30,10.28,30,43.2c0,33.9-14.33,44.73-31.07,42.11C240.15,555.44,229,538.16,229.32,515.85Z" style="fill:#a7a9ac;stroke:#000;stroke-miterlimit:10;stroke-width:3px"/><path d="M222.65,441.58c-8.09,5.58,18,76,27.46,85.31,6.34,6.24,19.9,3.18,20.67-4,.65-5.36-3.07-21.55-5.47-37.3-3.28-20.78-.77-36.64-3.28-41S228.12,437.76,222.65,441.58Z" style="fill:#5c98d1;stroke:#000;stroke-linecap:round;stroke-miterlimit:10;stroke-width:3px"/><path d="M273.84,250.51c9.52,2.19,19.14,2.19,29.31,2.19,11.49,0,18.05-1.21,22.42-2.74" style="fill:none;stroke:#000;stroke-linecap:round;stroke-miterlimit:10;stroke-width:2px"/><path d="M276.36,257.29c8.2,2.19,16.62,2.19,25.37,2.19,9.52,0,16.08-1.32,19.47-2.74" style="fill:none;stroke:#000;stroke-linecap:round;stroke-miterlimit:10;stroke-width:2px"/><path d="M291,173c-14.65-.33-34.56,12.47-34.56,25.49,0,8.86,19.8,40.68,39.05,43.42" style="fill:none;stroke:#000;stroke-miterlimit:10;stroke-width:2px"/><circle cx="263.56" cy="198.99" r="1.64" style="fill:none;stroke:#000;stroke-miterlimit:10;stroke-width:2px"/><path d="M233.37,181.06c-6,2.51-12.9,18-12.9,23.95,0,10.72,28.1,30.19,29.53,30.62" style="fill:none;stroke:#000;stroke-miterlimit:10;stroke-width:2px"/><circle cx="227.36" cy="205.23" r="1.64" style="fill:none;stroke:#000;stroke-miterlimit:10;stroke-width:2px"/><path d="M209.42,424.41c-3.39-3.83-5-10.06-2.08-12.36,2.52-2,23,5.58,58.84,6.24,37,.65,50-5.36,52-2.52,2.62,3.72.76,9.74-2.85,12.69-3.17,2.62-22.2,3.83-48.56,3.94C242.67,432.51,212.37,427.8,209.42,424.41Z" style="fill:#ee365e;stroke:#000;stroke-miterlimit:10;stroke-width:3px"/><path d="M353.68,277c6.78,1.75,10.83,15,10.83,24.39-.11,21.43-5.69,29.42-10.83,33.79" style="fill:none;stroke:#000;stroke-linecap:round;stroke-miterlimit:10;stroke-width:2px"/><path d="M379.17,283.87c6.78,1.53,10.82,13,10.82,21.22-.11,18.7-5.68,25.48-10.82,29.31" style="fill:none;stroke:#000;stroke-linecap:round;stroke-miterlimit:10;stroke-width:2px"/><path d="M400.71,286.27c6.78,1.21,10.83,10.83,10.83,17.61-.11,15.53-5.69,21.22-10.83,24.39" style="fill:none;stroke:#000;stroke-linecap:round;stroke-miterlimit:10;stroke-width:2px"/><path d="M421.71,284.74c4.49,1.1,7.22,9.19,7.22,14.88,0,13.12-3.83,17.93-7.22,20.67" style="fill:none;stroke:#000;stroke-linecap:round;stroke-miterlimit:10;stroke-width:2px"/><path d="M173.76,350.26c2.85,1.75,23.19,7,32.05,12a99.36,99.36,0,0,1,21.87,17.06c4.27,4.59,3.94,8.2,8.75,18.92,3.18,7.11,4.38,7.55,7.88,9.41" style="fill:none;stroke:#000;stroke-linecap:round;stroke-miterlimit:10;stroke-width:2px"/><path d="M227.68,379.35c15,7.22,34,9.19,63.55,8.31,15.75-.54,28.77-4.92,33-13.12" style="fill:none;stroke:#000;stroke-linecap:round;stroke-miterlimit:10;stroke-width:2px"/><path d="M192.9,355.51l5.25-8.75a1.75,1.75,0,0,1,2.3-.55l24,11.7a1.72,1.72,0,0,1,.55,2.3l-5.69,9.84" style="fill:none;stroke:#000;stroke-linecap:round;stroke-miterlimit:10"/><path d="M205.81,197.35c-1,2.63-9.63,10.5-4.16,18.16,3.94,5.58,12.14,11.37,14.77,12.9" style="fill:none;stroke:#000;stroke-linecap:round;stroke-miterlimit:10;stroke-width:2px"/><circle cx="206.5" cy="211.91" r="1.64" style="fill:none;stroke:#000;stroke-miterlimit:10;stroke-width:2px"/><path d="M145.33,267.46c2.84,2.52,18,4.7,18,34.45,0,18-7.43,27.46-10.39,31.72" style="fill:none;stroke:#000;stroke-miterlimit:10;stroke-width:2px"/><path d="M120.39,274.24c2.3,2.08,14.87,3.94,14.87,28.66,0,15-6.12,22.75-8.53,26.36" style="fill:none;stroke:#000;stroke-miterlimit:10;stroke-width:2px"/><path d="M103.11,276.54c1.2,2,8.64,4.26,6.56,25.48-1.31,12.8-5.58,19.25-7.33,22.1" style="fill:none;stroke:#000;stroke-miterlimit:10;stroke-width:2px"/><path d="M85,276.43c1.21,1.86,9.19,4.48,6.13,23.41-1.86,11.48-6.78,16.84-8.75,19.25" style="fill:none;stroke:#000;stroke-miterlimit:10;stroke-width:2px"/><path d="M75.76,312.3s-10.28,3.83-29.31,6.79c-11.26,1.75-22.2.76-23.4-2.63s4.92-8.31,8.09-8.86c5.25-.87,13.13-3.83,12.8-5.9s-10.83,0-16.19-1.32C25,299.73,12,296,12,290.43c0-2.19,8.2-6,11.81-5.8s19.36,3.72,19.91,1.75-10.94-7.22-13.67-9.29c-7.44-5.58-10.18-12.91-7.66-14.33s10.17-.77,15.53,3.06c3.5,2.52,10.28,9.19,15.1,8.53,7.65-1,.1-4.59-1.54-9.08C49,258.38,48,252.7,50.17,252.48s16.19,8.86,19.47,12c4.81,4.81,11.92,14.54,11.92,14.54" style="fill:#a7a9ac;stroke:#000;stroke-miterlimit:10;stroke-width:3px"/><line x1="216.42" y1="228.52" x2="216.42" y2="265.82" style="fill:none;stroke:#000;stroke-miterlimit:10"/><line x1="218.5" y1="228.31" x2="218.5" y2="265.71" style="fill:none;stroke:#000;stroke-miterlimit:10"/><ellipse cx="61.11" cy="295.46" rx="5.47" ry="11.48" style="fill:#fff200;stroke:#f7941d;stroke-linecap:round;stroke-miterlimit:10;stroke-width:2px"/><path d="M49.19,318.87c-5.25-11.82-4.38-19-4.49-24.94-.22-12.14,1-17.5,4.27-20.56" style="fill:none;stroke:#000;stroke-linecap:round;stroke-miterlimit:10;stroke-width:2px"/><path d="M55.64,272.16c5.47,2.52,3.39,2.19,11.81,3.83,6.89,1.31,10.72-1.86,10.72-1.86" style="fill:none;stroke:#000;stroke-miterlimit:10;stroke-width:2px"/><path d="M59.25,316.68c11.16,14.76,16.51,33.36,55.12,57.75,35,22.2,71.75,19.58,80.06,19.58" style="fill:none;stroke:#000;stroke-miterlimit:10;stroke-width:2px"/><path d="M247.7,293l47.36,5.57a4.23,4.23,0,0,0,3.06-.22l26-5.79a4.38,4.38,0,0,1,6.24,3.39l2.73,20.78a4.31,4.31,0,0,1-1.31,3.72l-17.5,17.28a3.93,3.93,0,0,0-1.21,2.3l-5.25,25.81a4.42,4.42,0,0,1-4.15,3.5l-24.17.87a4.38,4.38,0,0,1-4.27-2.73l-3.72-30.3a4.76,4.76,0,0,0-1.42-1.86l-28.22-12.9a4.18,4.18,0,0,1-1.64-3.94l2-21.66A4.41,4.41,0,0,1,247.7,293Z" style="fill:#a7a9ac;stroke:#000;stroke-miterlimit:10;stroke-width:2px"/><circle cx="294.51" cy="320.94" r="29.31" transform="translate(-69.46 560.24) rotate(-80.78)" style="fill:#a7a9ac;stroke:#000;stroke-miterlimit:10;stroke-width:3px"/><circle cx="295.17" cy="320.4" r="21.77" style="fill:#fff;stroke:#000;stroke-miterlimit:10;stroke-width:2px"/><line x1="230.97" y1="439.72" x2="229.76" y2="429.66" style="fill:none;stroke:#000;stroke-linecap:round;stroke-miterlimit:10;stroke-width:3px"/><line x1="254.04" y1="432.07" x2="254.04" y2="441.36" style="fill:none;stroke:#000;stroke-linecap:round;stroke-miterlimit:10;stroke-width:3px"/><path d="M203.73,149.88c-4.37,3.83,4.38,17.4,9.85,23.63s24.71,17.06,27,17.28,3.39.11,7.11-3.72-7.33-16.29-17.5-26.36C223.75,154.37,207.34,146.6,203.73,149.88Z" style="fill:#fff200;stroke:#f7941d;stroke-linecap:round;stroke-miterlimit:10;stroke-width:2px"/><polyline points="232.61 182.92 224.84 177.45 228.78 176.57 225.93 171.76 231.62 174.28 230.86 168.15 236.98 174.28 240.7 178.32" style="fill:none;stroke:#f7941d;stroke-linecap:round;stroke-miterlimit:10;stroke-width:2px"/><path d="M242.12,172.2a26.78,26.78,0,0,1-13.78,14.54c5.69,3.83,11,6.78,12.14,6.89,2.3.11,3.5-.11,7.44-4.7C250.32,186,247.15,179.42,242.12,172.2Z" style="fill:#a7a9ac;stroke:#000;stroke-linejoin:round;stroke-width:3px"/><path d="M268.92,450.66a42.15,42.15,0,0,1,6.34,1.53,32.25,32.25,0,0,1,6,2.63,29.4,29.4,0,0,1,5.47,3.61,36.66,36.66,0,0,1,4.81,4.37,44.74,44.74,0,0,1,4.05,5.14,29.77,29.77,0,0,1,3.06,5.8,36.6,36.6,0,0,1,3.06,12.58,39.75,39.75,0,0,0-1.53-6.24,56.44,56.44,0,0,0-2.3-6,40.18,40.18,0,0,0-7.11-10.5,41.52,41.52,0,0,0-10-8A47.91,47.91,0,0,0,268.92,450.66Z"/><path d="M80.36,277c1.64,5.9,2.73,9.84,1.2,19.14-1.64,10.17-3.83,13-7.44,18.7" style="fill:none;stroke:#000;stroke-linecap:round;stroke-miterlimit:10;stroke-width:3px"/><path d="M255.14,522.63c-4.38,1.2-20.24-5-20.67-6.89s15.64-4.81,20.67-3S259.84,521.43,255.14,522.63Z" style="fill:#a7a9ac;stroke:#000;stroke-miterlimit:10;stroke-width:3px"/><line x1="325.14" y1="470.68" x2="304.46" y2="470.68" style="fill:none;stroke:#000;stroke-linecap:round;stroke-miterlimit:10"/><line x1="328.64" y1="480.52" x2="306.87" y2="480.52" style="fill:none;stroke:#000;stroke-linecap:round;stroke-miterlimit:10"/><line x1="317.15" y1="461.93" x2="296.48" y2="461.93" style="fill:none;stroke:#000;stroke-linecap:round;stroke-miterlimit:10"/><line x1="308.95" y1="455.36" x2="288.28" y2="455.36" style="fill:none;stroke:#000;stroke-linecap:round;stroke-miterlimit:10"/><line x1="302.39" y1="449.9" x2="281.71" y2="449.9" style="fill:none;stroke:#000;stroke-linecap:round;stroke-miterlimit:10"/><ellipse cx="451.67" cy="295.87" rx="5.14" ry="11.05" transform="matrix(0.99, -0.13, 0.13, 0.99, -33.68, 59.27)" style="fill:#fff200;stroke:#f7941d;stroke-linecap:round;stroke-miterlimit:10;stroke-width:2px"/><path d="M430.9,277.63c1.86,1.42,5.25,1.1,7.66,1,4.59-.11,6.56-2,7.65-4.71" style="fill:none;stroke:#000;stroke-miterlimit:10;stroke-width:2px"/><path d="M456.06,275.34c2.84,1.53,6.45.76,11.15,13.45,6.35,16.95,1.1,26.25,0,28" style="fill:none;stroke:#000;stroke-linecap:round;stroke-miterlimit:10;stroke-width:2px"/><path d="M294.29,204.9c-1.31-5.58,1.64-11.16,7.44-14.11,8.86-4.37,18.81,3.72,17.61,9.63" style="fill:none;stroke:#000;stroke-miterlimit:10;stroke-width:3px"/></g><g id="Layer_4" data-name="Layer 4"><path d="M266.4,177.34c-3.61,1.09-16.95,11.37-22.09,32.59C238.4,234,254,237.27,254,237.27l-59.61-14.65s-3.28.76-3.82-2,12.14-22.42,19.36-27.13,15-8.85,15-8.85l5.47,1,4.92-3.61s2.95,2,4.81,3.17a75.19,75.19,0,0,0,7.77,3.61l.55-4.92-1.54-4.27a68,68,0,0,1,15.1-3.06C274.61,175.37,270,176.35,266.4,177.34Z" style="fill:#55285b;opacity:0.4000000059604645;isolation:isolate"/><path d="M167.53,264.62c-7.11-3.06-8-1.64-8-1.64l-4.81,2.62s20.78,1.1,26.69,27.35a95.42,95.42,0,0,1,1.75,10.71c-10.72,1.54-29,3.72-41.89,3.29-19.36-.66-62-8.86-62-8.86l-10.6.54s-1.54,9.63-5.91,10.28c-5.25.88-8.2-2.62-8.64-9.18-.11-1.1-2.74-.11-4.49-1.32-6.23-4.26-5-4.59-5-4.59a68.78,68.78,0,0,1-13.67,0c-3.28-.33-9.73-5.8-9.73-5.8l-9.08,2.3s9.41,6.45,16.51,7.33a123.12,123.12,0,0,0,16.08.76s2.19,7.44-6.45,10.61c-1.75.66-14.22,2.19-15,5-.88,3.5,11.7,2.85,14.54,2.63,13.56-1,39.05-7.77,39.05-7.77v2.19s30,10.5,40.58,13c9.73,2.29,45.82,7.11,58,7.11a13.79,13.79,0,0,1-4.92,3.06l7.66-.22a27.29,27.29,0,0,0,4-4.05c2.74-1.2,3.29-3.39,4.82-7.22a46.32,46.32,0,0,0,5.14-20.45C192.9,275.66,175,267.79,167.53,264.62Z" style="fill:#55285b;opacity:0.4000000059604645;isolation:isolate"/><path d="M263.23,409.65a10.89,10.89,0,0,1-6.34-5.14c-3.5-6.35-5.8-17-5.91-18.38-.33-2.51-33.8-31.06-39.37-52.39-5.36-20.67,14.11-66.17,14.11-66.17L227.57,238a2.12,2.12,0,0,0-1.64-2.19c-3.39-.76-11.15-2.4-16.4-3.5-7-1.53-3.61-6.34-3.61-6.34l-11.49-3.28c-10.28-3-1.53-8.64-1.53-8.64l-11.48,1.64s5.14,35.65-14.44,36.64c-5.69.33-7.87,6.67-5.69,9.95s6.35,2.3,6.35,2.3,44.08,11,23,59.28c-5.36,12.36-32.27,13.56-24.5,15.2,14.43,3.06,14.43,15.86,24.5,35.66s9.51,23.84,9.51,23.84l30.3,8Z" style="fill:#55285b;opacity:0.4000000059604645;isolation:isolate"/><path d="M272.09,418.4l-33.58-2-29.31-4.6V403.3l29.42,5.47,43.09,1.64s-5.25,2.52-7.54,4.49S272.09,418.4,272.09,418.4Z" style="fill:#55285b;opacity:0.30000001192092896;isolation:isolate"/><path d="M271,430.43a1.5,1.5,0,0,1-1.32,1.64c-7.32-.33-42.21-1.75-31.06-.33,11.7,1.42-23-5.58-27-6.34-.22,0-.44-.22-.66-.44-.87-1-3.5-4.27-4.27-7.33-1.31-5.47,1.75-6.12,2.52-6.23h.33l28.54,4.81c.22,0,.33.22.55.22,12.47,1.2,8.2,3.61,15.53,4.81a84.11,84.11,0,0,0,15.75,1.53,1.49,1.49,0,0,1,1.31,1.64v6Z" style="fill:#55285b;opacity:0.4000000059604645;isolation:isolate"/><path d="M337.93,302.79a.78.78,0,0,1,1.21-.77,46.82,46.82,0,0,0,25.37,9.74c30,2.29,72.08-12.69,72.08-12.69l6.12-1.31a.72.72,0,0,1,.88.54c.76,2.52,3.61,11.49,9,11.49,7.21,0,8.2-9.3,8.31-11.7,0-.33,1.2-3.72,1.53-3.83,1.86-.55,7.22-1.21,12.69-2s13-4.27,16.18-6.24c.44-.21,4.82-1,4.93-.43.32,2,2.95,1.2-3,4.81-5.58,3.39-14.33,5.91-22,7.11-.66.11.44,4.48,1.09,4.7,5.58,1.75,15.53,5.25,13,6.78-3.17,1.86-2.52,1.32-10.17,3.17-10.94,2.52-35.11-1.42-38-1.64,0,0-3.17.66-3.28.77-2.73,1.42-32.7,15.42-53.37,18.59-13.24,2.08-36.86-1.42-40.91-2.18A.93.93,0,0,1,339,327c.22-2.3.76-5.36,1-9.73C340.23,313.51,338.7,306.4,337.93,302.79Z" style="fill:#55285b;opacity:0.4000000059604645;isolation:isolate"/><path d="M278,264.4c-8-4.16-4.71-20.13-4.71-20.13s45.39-5.46,55.35-5.46,35.87,1.31,35.87,1.31-25.16,4.26-30.19,5.79S319,262.76,315.73,263.52,278,264.4,278,264.4Z" style="fill:#55285b;opacity:0.4000000059604645;isolation:isolate"/><path d="M303.37,365.9c-3.28,0-21.66,2.29-24.28,0-1.53-1.32-2.3-7.66-2.63-12.91,16.85,6.56,35.44-7,35.44-7s-20.56,14.66-37.95-5c-22.86-25.81,5.69-46.37,5.69-46.37s-26,9.18-23.08,31.06c-5.47-1.21-11.59-3.5-13.34-6.56-1.43-5,2-25,3.82-26.25s-3.28-2.41-6.78,1.75-5.36,25.81-3.5,28.1c1.31,1.65,14.11,7.77,22.21,11.49.65,1.42,1.42,2.95,2.29,4.48A34.91,34.91,0,0,0,271,349.93l1.75,16.95s-.44,4.6,3.39,5.25,26,1.1,29-1.09,3.28-7.88,3.28-7.88A6.62,6.62,0,0,1,303.37,365.9Z" style="fill:#55285b;opacity:0.4000000059604645;isolation:isolate"/><polygon points="230.31 439.72 229.87 430.32 250.11 432.51 250.11 441.37 230.31 439.72" style="fill:#55285b;opacity:0.4000000059604645;isolation:isolate"/><polygon points="286.64 431.52 288.28 441.58 301.73 442.35 301.73 431.3 286.64 431.52" style="fill:#55285b;opacity:0.4000000059604645;isolation:isolate"/><path d="M234,439.72h-.11c-1-.21-15.42-5-6.13,24.18,3.07,9.73,16.19,44,17.83,48a.73.73,0,0,0,.55.44l11.26.55c.55,0-.21-.55-.54-1-2-3.17-6.35-13.45-9-33.69-1.86-14.32-.66-22.64.76-27a5.28,5.28,0,0,0-3.06-6.56Z" style="fill:#55285b;opacity:0.4000000059604645;isolation:isolate"/><path d="M234.47,515.74s7.32,1.31,13.45,2.08a28.2,28.2,0,0,0,10.06-.33v5.36l-7,1.64Z" style="fill:#55285b;opacity:0.4000000059604645;isolation:isolate"/><path d="M259.73,520.11s-.66.77,1,5.14,7,3.18,7,3.18l-10.49,2-7.77-1.75-1.53-4.15Z" style="fill:#55285b;opacity:0.4000000059604645;isolation:isolate"/><path d="M261.92,580.27c-22-4.38-40.91-26-42.77-52.5a129.42,129.42,0,0,1,4.71-43.09l9.4,21.87c-1.31,6.13-1.86,15.86,2.63,28.88,9.08,25.81,33,17.5,33,17.5a21.35,21.35,0,0,1-10.94-9.3,28.5,28.5,0,0,1-3.17-8.31,10.76,10.76,0,0,0,3.94.65c10.17,0,12.25-11.59,12.25-11.59a22.85,22.85,0,0,1-8.43,5.8c-5,1.86-14.65-5.8-14.65-5.8l-13.45-8.64,7.87-3.94-3.94-9.3-13.78-36.2-5.47,7.44c-5.47,7.44-10.17,41.12-3.82,67.92s32.81,43,51.73,44.62S309,577.75,309,577.75,289.81,585.74,261.92,580.27Z" style="fill:#55285b;opacity:0.4000000059604645;isolation:isolate"/><path d="M277.56,445.63l1.2-4.27,8-3.06,1.53,3.39,13.45.77L298.67,450s-2.85-2.74-11.92-3.61Z" style="fill:#55285b;opacity:0.4000000059604645;isolation:isolate"/></g><g id="Layer_6" data-name="Layer 6"><path d="M331.48,279.6l2.19,8.1s7.76,5.35,30.62,12.14c31.5,9.18,72.3-4.49,72.3-4.49l-2.3-6.12s-36.86,8.2-55.23,4.92S331.48,279.6,331.48,279.6Z" style="fill:#fff;opacity:0.30000001192092896;isolation:isolate"/><path d="M383.76,209.6s-28.11-12.79-50.53-20.23c-35.44-11.7-58-3.94-55.34-8.2,4.37-7,44.84-3,85.85,18.26C383.1,209.38,383.76,209.6,383.76,209.6Z" style="fill:#fff;opacity:0.30000001192092896;isolation:isolate"/><path d="M87,282.77v7.11s25.81,2.3,43.31,1.53S157.58,287,157.58,287s0-3.06-2.63-8c-1.53-2.73-5.36-4.7-5.36-4.7s-8.64,4.38-26.79,6.56C99.28,283.87,87,282.77,87,282.77Z" style="fill:#fff;opacity:0.30000001192092896;isolation:isolate"/><path d="M317.15,296.55l8-2.29a2.36,2.36,0,0,1,2.84,1.86l1.42,14.22-3.06-13.24a2.41,2.41,0,0,0-1.09-1Z" style="fill:#fff;opacity:0.30000001192092896;isolation:isolate"/><path d="M267.61,479.1c-2-1.86,7.65,2.84,12.25,15.31,6.67,17.83.87,41.34.87,41.34A92.75,92.75,0,0,0,278.21,498C275.37,487.3,267.61,479.1,267.61,479.1Z" style="fill:#fff;opacity:0.30000001192092896;isolation:isolate"/><ellipse cx="218.59" cy="159.76" rx="3.17" ry="6.56" transform="translate(-37.27 248.33) rotate(-55.26)" style="fill:#fff"/></g><g id="Layer_5" data-name="Layer 5"><path d="M295.39,300.6a19.58,19.58,0,0,0-18.93,14.77A19.58,19.58,0,0,1,308,330.9a18.9,18.9,0,0,1-.65,4.92,19.66,19.66,0,0,0-11.92-35.22ZM306,308.15c-.88,1.31-3.5,1.09-5.8-.55s-3.61-3.83-2.84-5.14,3.5-1.09,5.79.55S306.87,306.84,306,308.15Z" style="fill:#3e5a7d;opacity:0.3100000023841858;isolation:isolate"/></g></svg>